<mxfile host="app.diagrams.net" agent="Mozilla/5.0 (Windows NT 10.0; Win64; x64) AppleWebKit/537.36 (KHTML, like Gecko) Chrome/140.0.0.0 Safari/537.36" version="28.2.0">
  <diagram name="Page-1" id="_B4KsG3uydyC_bg2sVCs">
    <mxGraphModel dx="2053" dy="661" grid="1" gridSize="10" guides="1" tooltips="1" connect="1" arrows="1" fold="1" page="1" pageScale="1" pageWidth="827" pageHeight="1169" math="0" shadow="0">
      <root>
        <mxCell id="0" />
        <mxCell id="1" parent="0" />
        <mxCell id="Rxa1EBGvv-QaAGRhn5k4-1" value="&lt;b&gt;&lt;font style=&quot;font-size: 19px;&quot;&gt;student Information System&lt;/font&gt;&lt;/b&gt;" style="text;html=1;align=center;verticalAlign=middle;resizable=0;points=[];autosize=1;strokeColor=#82b366;fillColor=#d5e8d4;" parent="1" vertex="1">
          <mxGeometry x="240" y="35" width="270" height="40" as="geometry" />
        </mxCell>
        <mxCell id="ZSu0kORyn2G5vzZGHs3y-2" value="" style="edgeStyle=orthogonalEdgeStyle;rounded=0;orthogonalLoop=1;jettySize=auto;html=1;" edge="1" parent="1" source="Rxa1EBGvv-QaAGRhn5k4-2" target="ZSu0kORyn2G5vzZGHs3y-1">
          <mxGeometry relative="1" as="geometry" />
        </mxCell>
        <mxCell id="ZSu0kORyn2G5vzZGHs3y-6" value="" style="edgeStyle=orthogonalEdgeStyle;rounded=0;orthogonalLoop=1;jettySize=auto;html=1;" edge="1" parent="1" source="Rxa1EBGvv-QaAGRhn5k4-2" target="ZSu0kORyn2G5vzZGHs3y-5">
          <mxGeometry relative="1" as="geometry" />
        </mxCell>
        <mxCell id="Rxa1EBGvv-QaAGRhn5k4-2" value="&lt;b&gt;&lt;font style=&quot;font-size: 14px;&quot;&gt;Admin&lt;/font&gt;&lt;/b&gt;" style="rounded=0;whiteSpace=wrap;html=1;fillColor=#a20025;fontColor=#ffffff;strokeColor=#6F0000;" parent="1" vertex="1">
          <mxGeometry x="10" y="130" width="140" height="40" as="geometry" />
        </mxCell>
        <mxCell id="ZSu0kORyn2G5vzZGHs3y-4" value="" style="edgeStyle=orthogonalEdgeStyle;rounded=0;orthogonalLoop=1;jettySize=auto;html=1;" edge="1" parent="1" source="ZSu0kORyn2G5vzZGHs3y-1" target="ZSu0kORyn2G5vzZGHs3y-3">
          <mxGeometry relative="1" as="geometry" />
        </mxCell>
        <mxCell id="ZSu0kORyn2G5vzZGHs3y-1" value="&lt;b&gt;&lt;font style=&quot;font-size: 14px;&quot;&gt;login to&lt;/font&gt;&lt;/b&gt;&lt;div&gt;&lt;b&gt;&lt;font style=&quot;font-size: 14px;&quot;&gt;system&lt;/font&gt;&lt;/b&gt;&lt;/div&gt;" style="ellipse;whiteSpace=wrap;html=1;fillColor=#a20025;strokeColor=#6F0000;fontColor=#ffffff;rounded=0;" vertex="1" parent="1">
          <mxGeometry x="260" y="110" width="80" height="80" as="geometry" />
        </mxCell>
        <mxCell id="ZSu0kORyn2G5vzZGHs3y-3" value="&lt;b&gt;&lt;font style=&quot;font-size: 14px;&quot;&gt;check&lt;/font&gt;&lt;/b&gt;&lt;div&gt;&lt;b&gt;&lt;font style=&quot;font-size: 14px;&quot;&gt;credentials&lt;/font&gt;&lt;/b&gt;&lt;/div&gt;" style="ellipse;whiteSpace=wrap;html=1;fillColor=#a20025;strokeColor=#6F0000;fontColor=#ffffff;rounded=0;" vertex="1" parent="1">
          <mxGeometry x="260" y="270" width="80" height="80" as="geometry" />
        </mxCell>
        <mxCell id="ZSu0kORyn2G5vzZGHs3y-10" value="" style="edgeStyle=orthogonalEdgeStyle;rounded=0;orthogonalLoop=1;jettySize=auto;html=1;" edge="1" parent="1" source="ZSu0kORyn2G5vzZGHs3y-5" target="ZSu0kORyn2G5vzZGHs3y-9">
          <mxGeometry relative="1" as="geometry" />
        </mxCell>
        <mxCell id="ZSu0kORyn2G5vzZGHs3y-5" value="&lt;b&gt;&lt;font style=&quot;font-size: 14px;&quot;&gt;forgot password&lt;/font&gt;&lt;/b&gt;" style="ellipse;whiteSpace=wrap;html=1;fillColor=#a20025;strokeColor=#6F0000;fontColor=#ffffff;rounded=0;" vertex="1" parent="1">
          <mxGeometry x="40" y="270" width="80" height="80" as="geometry" />
        </mxCell>
        <mxCell id="ZSu0kORyn2G5vzZGHs3y-9" value="&lt;span style=&quot;font-size: 14px;&quot;&gt;&lt;b&gt;send email&lt;/b&gt;&lt;/span&gt;&lt;div&gt;&lt;span style=&quot;font-size: 14px;&quot;&gt;&lt;b&gt;to user&lt;/b&gt;&lt;/span&gt;&lt;/div&gt;" style="ellipse;whiteSpace=wrap;html=1;fillColor=#a20025;strokeColor=#6F0000;fontColor=#ffffff;rounded=0;" vertex="1" parent="1">
          <mxGeometry x="40" y="430" width="80" height="80" as="geometry" />
        </mxCell>
        <mxCell id="ZSu0kORyn2G5vzZGHs3y-19" value="" style="edgeStyle=orthogonalEdgeStyle;rounded=0;orthogonalLoop=1;jettySize=auto;html=1;" edge="1" parent="1" source="ZSu0kORyn2G5vzZGHs3y-11" target="ZSu0kORyn2G5vzZGHs3y-18">
          <mxGeometry relative="1" as="geometry" />
        </mxCell>
        <mxCell id="ZSu0kORyn2G5vzZGHs3y-11" value="&lt;b&gt;&lt;font style=&quot;font-size: 14px;&quot;&gt;check&lt;/font&gt;&lt;/b&gt;&lt;div&gt;&lt;b&gt;&lt;font style=&quot;font-size: 14px;&quot;&gt;credentials&lt;/font&gt;&lt;/b&gt;&lt;/div&gt;" style="ellipse;whiteSpace=wrap;html=1;fillColor=#a20025;strokeColor=#6F0000;fontColor=#ffffff;rounded=0;" vertex="1" parent="1">
          <mxGeometry x="460" y="110" width="80" height="80" as="geometry" />
        </mxCell>
        <mxCell id="ZSu0kORyn2G5vzZGHs3y-17" value="" style="endArrow=classic;html=1;rounded=0;entryX=0.085;entryY=0.767;entryDx=0;entryDy=0;entryPerimeter=0;" edge="1" parent="1" source="ZSu0kORyn2G5vzZGHs3y-3" target="ZSu0kORyn2G5vzZGHs3y-11">
          <mxGeometry width="50" height="50" relative="1" as="geometry">
            <mxPoint x="380" y="360" as="sourcePoint" />
            <mxPoint x="380" y="260" as="targetPoint" />
          </mxGeometry>
        </mxCell>
        <mxCell id="ZSu0kORyn2G5vzZGHs3y-18" value="&lt;b&gt;&lt;font style=&quot;font-size: 14px;&quot;&gt;Manage&amp;nbsp;&lt;/font&gt;&lt;/b&gt;&lt;div&gt;&lt;b&gt;&lt;font style=&quot;font-size: 14px;&quot;&gt;modules&lt;/font&gt;&lt;/b&gt;&lt;/div&gt;" style="ellipse;whiteSpace=wrap;html=1;fillColor=#a20025;strokeColor=#6F0000;fontColor=#ffffff;rounded=0;" vertex="1" parent="1">
          <mxGeometry x="460" y="270" width="80" height="80" as="geometry" />
        </mxCell>
        <mxCell id="ZSu0kORyn2G5vzZGHs3y-20" value="&lt;b&gt;&lt;font style=&quot;font-size: 14px;&quot;&gt;Manage system&lt;/font&gt;&lt;/b&gt;&lt;div&gt;&lt;b&gt;&lt;font style=&quot;font-size: 14px;&quot;&gt;Admins&lt;/font&gt;&lt;/b&gt;&lt;/div&gt;" style="rounded=0;whiteSpace=wrap;html=1;fillColor=#a20025;fontColor=#ffffff;strokeColor=#6F0000;" vertex="1" parent="1">
          <mxGeometry x="-70" y="580" width="220" height="50" as="geometry" />
        </mxCell>
        <mxCell id="ZSu0kORyn2G5vzZGHs3y-22" value="&lt;b&gt;&lt;font style=&quot;font-size: 14px;&quot;&gt;Manage roles&lt;/font&gt;&lt;/b&gt;&lt;div&gt;&lt;b&gt;&lt;font style=&quot;font-size: 14px;&quot;&gt;of user&lt;/font&gt;&lt;/b&gt;&lt;/div&gt;" style="rounded=0;whiteSpace=wrap;html=1;fillColor=#a20025;fontColor=#ffffff;strokeColor=#6F0000;" vertex="1" parent="1">
          <mxGeometry x="180" y="570" width="210" height="50" as="geometry" />
        </mxCell>
        <mxCell id="ZSu0kORyn2G5vzZGHs3y-23" value="&lt;b&gt;&lt;font style=&quot;font-size: 14px;&quot;&gt;Manage user&amp;nbsp;&lt;/font&gt;&lt;/b&gt;&lt;div&gt;&lt;b&gt;&lt;font style=&quot;font-size: 14px;&quot;&gt;permission&amp;nbsp;&lt;/font&gt;&lt;/b&gt;&lt;/div&gt;" style="whiteSpace=wrap;html=1;fillColor=#a20025;fontColor=#ffffff;strokeColor=#6F0000;" vertex="1" parent="1">
          <mxGeometry x="414" y="570" width="190" height="50" as="geometry" />
        </mxCell>
        <mxCell id="ZSu0kORyn2G5vzZGHs3y-28" value="" style="endArrow=classic;html=1;rounded=0;exitX=0;exitY=0.5;exitDx=0;exitDy=0;" edge="1" parent="1" source="ZSu0kORyn2G5vzZGHs3y-18" target="ZSu0kORyn2G5vzZGHs3y-20">
          <mxGeometry width="50" height="50" relative="1" as="geometry">
            <mxPoint x="320" y="400" as="sourcePoint" />
            <mxPoint x="370" y="350" as="targetPoint" />
          </mxGeometry>
        </mxCell>
        <mxCell id="ZSu0kORyn2G5vzZGHs3y-30" value="" style="endArrow=classic;html=1;rounded=0;exitX=0.058;exitY=0.798;exitDx=0;exitDy=0;exitPerimeter=0;" edge="1" parent="1" source="ZSu0kORyn2G5vzZGHs3y-18">
          <mxGeometry width="50" height="50" relative="1" as="geometry">
            <mxPoint x="320" y="400" as="sourcePoint" />
            <mxPoint x="290" y="570" as="targetPoint" />
          </mxGeometry>
        </mxCell>
        <mxCell id="ZSu0kORyn2G5vzZGHs3y-31" value="&lt;b&gt;&lt;font style=&quot;font-size: 14px;&quot;&gt;Manage Timetable&amp;nbsp;&lt;/font&gt;&lt;/b&gt;&lt;div&gt;&lt;b&gt;&lt;font style=&quot;font-size: 14px;&quot;&gt;Details&lt;/font&gt;&lt;/b&gt;&lt;/div&gt;" style="rounded=0;whiteSpace=wrap;html=1;fillColor=#a20025;fontColor=#ffffff;strokeColor=#6F0000;" vertex="1" parent="1">
          <mxGeometry x="670" y="130" width="270" height="50" as="geometry" />
        </mxCell>
        <mxCell id="ZSu0kORyn2G5vzZGHs3y-32" value="&lt;b&gt;&lt;font&gt;&lt;font style=&quot;&quot;&gt;Manage&lt;/font&gt; &lt;font style=&quot;&quot;&gt;Attendence&lt;/font&gt;&lt;/font&gt;&lt;/b&gt;&lt;div&gt;&lt;b&gt;&lt;font&gt;Details&lt;/font&gt;&lt;/b&gt;&lt;/div&gt;" style="whiteSpace=wrap;html=1;fillColor=#a20025;strokeColor=#6F0000;fontColor=#ffffff;rounded=0;" vertex="1" parent="1">
          <mxGeometry x="670" y="200" width="270" height="50" as="geometry" />
        </mxCell>
        <mxCell id="ZSu0kORyn2G5vzZGHs3y-38" value="&lt;b&gt;Manage classDetails&lt;/b&gt;" style="whiteSpace=wrap;html=1;fillColor=#a20025;strokeColor=#6F0000;fontColor=#ffffff;rounded=0;" vertex="1" parent="1">
          <mxGeometry x="670" y="270" width="270" height="50" as="geometry" />
        </mxCell>
        <mxCell id="ZSu0kORyn2G5vzZGHs3y-42" value="&lt;b&gt;Manage Student Details&lt;/b&gt;" style="whiteSpace=wrap;html=1;fillColor=#a20025;strokeColor=#6F0000;fontColor=#ffffff;rounded=0;" vertex="1" parent="1">
          <mxGeometry x="670" y="340" width="270" height="50" as="geometry" />
        </mxCell>
        <mxCell id="ZSu0kORyn2G5vzZGHs3y-44" value="&lt;b&gt;Manage Fees Details&lt;/b&gt;" style="whiteSpace=wrap;html=1;fillColor=#a20025;strokeColor=#6F0000;fontColor=#ffffff;rounded=0;" vertex="1" parent="1">
          <mxGeometry x="670" y="410" width="270" height="50" as="geometry" />
        </mxCell>
        <mxCell id="ZSu0kORyn2G5vzZGHs3y-46" value="&lt;b&gt;Manage Fees Details&lt;/b&gt;" style="whiteSpace=wrap;html=1;fillColor=#a20025;strokeColor=#6F0000;fontColor=#ffffff;rounded=0;" vertex="1" parent="1">
          <mxGeometry x="670" y="480" width="270" height="50" as="geometry" />
        </mxCell>
        <mxCell id="ZSu0kORyn2G5vzZGHs3y-48" value="" style="endArrow=classic;html=1;rounded=0;exitX=0.247;exitY=0.918;exitDx=0;exitDy=0;exitPerimeter=0;" edge="1" parent="1" source="ZSu0kORyn2G5vzZGHs3y-18">
          <mxGeometry width="50" height="50" relative="1" as="geometry">
            <mxPoint x="410" y="530" as="sourcePoint" />
            <mxPoint x="470" y="560" as="targetPoint" />
          </mxGeometry>
        </mxCell>
        <mxCell id="ZSu0kORyn2G5vzZGHs3y-49" value="&lt;b&gt;Manage Teacher&amp;nbsp;&lt;/b&gt;&lt;div&gt;&lt;b&gt;Profiles&lt;/b&gt;&lt;/div&gt;" style="whiteSpace=wrap;html=1;fillColor=#a20025;strokeColor=#6F0000;fontColor=#ffffff;rounded=0;" vertex="1" parent="1">
          <mxGeometry x="670" y="550" width="270" height="50" as="geometry" />
        </mxCell>
        <mxCell id="ZSu0kORyn2G5vzZGHs3y-51" value="&lt;b&gt;Manage Report&lt;/b&gt;" style="whiteSpace=wrap;html=1;fillColor=#a20025;strokeColor=#6F0000;fontColor=#ffffff;rounded=0;" vertex="1" parent="1">
          <mxGeometry x="670" y="620" width="270" height="50" as="geometry" />
        </mxCell>
        <mxCell id="ZSu0kORyn2G5vzZGHs3y-53" value="" style="endArrow=classic;html=1;rounded=0;" edge="1" parent="1" source="ZSu0kORyn2G5vzZGHs3y-18">
          <mxGeometry width="50" height="50" relative="1" as="geometry">
            <mxPoint x="490" y="420" as="sourcePoint" />
            <mxPoint x="660" y="150" as="targetPoint" />
          </mxGeometry>
        </mxCell>
        <mxCell id="ZSu0kORyn2G5vzZGHs3y-54" value="" style="endArrow=classic;html=1;rounded=0;entryX=0;entryY=0.25;entryDx=0;entryDy=0;" edge="1" parent="1" source="ZSu0kORyn2G5vzZGHs3y-18" target="ZSu0kORyn2G5vzZGHs3y-32">
          <mxGeometry width="50" height="50" relative="1" as="geometry">
            <mxPoint x="490" y="420" as="sourcePoint" />
            <mxPoint x="540" y="370" as="targetPoint" />
          </mxGeometry>
        </mxCell>
        <mxCell id="ZSu0kORyn2G5vzZGHs3y-55" value="" style="endArrow=classic;html=1;rounded=0;exitX=1;exitY=0.5;exitDx=0;exitDy=0;entryX=0;entryY=0.5;entryDx=0;entryDy=0;" edge="1" parent="1" source="ZSu0kORyn2G5vzZGHs3y-18" target="ZSu0kORyn2G5vzZGHs3y-38">
          <mxGeometry width="50" height="50" relative="1" as="geometry">
            <mxPoint x="490" y="420" as="sourcePoint" />
            <mxPoint x="660" y="290" as="targetPoint" />
          </mxGeometry>
        </mxCell>
        <mxCell id="ZSu0kORyn2G5vzZGHs3y-56" value="" style="endArrow=classic;html=1;rounded=0;entryX=0;entryY=0.25;entryDx=0;entryDy=0;exitX=0.977;exitY=0.628;exitDx=0;exitDy=0;exitPerimeter=0;" edge="1" parent="1" source="ZSu0kORyn2G5vzZGHs3y-18" target="ZSu0kORyn2G5vzZGHs3y-42">
          <mxGeometry width="50" height="50" relative="1" as="geometry">
            <mxPoint x="490" y="420" as="sourcePoint" />
            <mxPoint x="540" y="370" as="targetPoint" />
          </mxGeometry>
        </mxCell>
        <mxCell id="ZSu0kORyn2G5vzZGHs3y-57" value="" style="endArrow=classic;html=1;rounded=0;entryX=0;entryY=0.5;entryDx=0;entryDy=0;exitX=0.957;exitY=0.758;exitDx=0;exitDy=0;exitPerimeter=0;" edge="1" parent="1" source="ZSu0kORyn2G5vzZGHs3y-18" target="ZSu0kORyn2G5vzZGHs3y-44">
          <mxGeometry width="50" height="50" relative="1" as="geometry">
            <mxPoint x="490" y="420" as="sourcePoint" />
            <mxPoint x="540" y="370" as="targetPoint" />
          </mxGeometry>
        </mxCell>
        <mxCell id="ZSu0kORyn2G5vzZGHs3y-58" value="" style="endArrow=classic;html=1;rounded=0;exitX=1;exitY=1;exitDx=0;exitDy=0;" edge="1" parent="1" source="ZSu0kORyn2G5vzZGHs3y-18">
          <mxGeometry width="50" height="50" relative="1" as="geometry">
            <mxPoint x="490" y="420" as="sourcePoint" />
            <mxPoint x="670" y="500" as="targetPoint" />
          </mxGeometry>
        </mxCell>
        <mxCell id="ZSu0kORyn2G5vzZGHs3y-59" value="" style="endArrow=classic;html=1;rounded=0;exitX=0.707;exitY=0.988;exitDx=0;exitDy=0;exitPerimeter=0;" edge="1" parent="1" source="ZSu0kORyn2G5vzZGHs3y-18">
          <mxGeometry width="50" height="50" relative="1" as="geometry">
            <mxPoint x="490" y="420" as="sourcePoint" />
            <mxPoint x="670" y="570" as="targetPoint" />
          </mxGeometry>
        </mxCell>
        <mxCell id="ZSu0kORyn2G5vzZGHs3y-60" value="" style="endArrow=classic;html=1;rounded=0;exitX=0.5;exitY=1;exitDx=0;exitDy=0;" edge="1" parent="1" source="ZSu0kORyn2G5vzZGHs3y-18">
          <mxGeometry width="50" height="50" relative="1" as="geometry">
            <mxPoint x="510" y="370" as="sourcePoint" />
            <mxPoint x="670" y="660" as="targetPoint" />
          </mxGeometry>
        </mxCell>
      </root>
    </mxGraphModel>
  </diagram>
</mxfile>
